<svg xmlns="http://www.w3.org/2000/svg" viewBox="0 0 135 40" width="135" height="40">
  <rect width="135" height="40" rx="7" fill="#000" stroke="#a6a6a6" stroke-width=".7"/>
  <!-- Apple logo -->
  <g transform="translate(10,4) scale(0.7)">
    <path fill="#fff" d="M24.77 20.3c-.03-3.22 2.63-4.79 2.75-4.86-1.51-2.2-3.84-2.5-4.66-2.53-1.97-.2-3.88 1.18-4.88 1.18-1.02 0-2.58-1.16-4.25-1.12-2.17.03-4.19 1.28-5.32 3.24-2.28 3.97-.58 9.83 1.63 13.05 1.1 1.58 2.4 3.34 4.1 3.28 1.65-.07 2.27-1.06 4.27-1.06 1.98 0 2.55 1.06 4.28 1.02 1.78-.03 2.9-1.59 3.97-3.17 1.27-1.82 1.78-3.58 1.81-3.67-.04-.02-3.46-1.33-3.5-5.26zm-3.27-9.66c.9-1.1 1.5-2.63 1.34-4.16-1.29.05-2.88.88-3.81 1.96-.82.96-1.55 2.53-1.36 4.01 1.45.11 2.93-.74 3.83-1.81z"/>
  </g>
  <!-- Text -->
  <text x="38" y="15" font-family="-apple-system,system-ui,Helvetica,Arial,sans-serif" font-size="7" fill="#fff">Download on the</text>
  <text x="38" y="29" font-family="-apple-system,system-ui,Helvetica,Arial,sans-serif" font-size="14" font-weight="600" fill="#fff">App Store</text>
</svg>