<svg xmlns="http://www.w3.org/2000/svg" viewBox="0 0 135 40" width="135" height="40">
  <rect width="135" height="40" rx="7" fill="#000" stroke="#a6a6a6" stroke-width=".7"/>
  <defs>
    <linearGradient id="gp-blue" x1="0" y1="0" x2="1" y2="0">
      <stop offset="0" stop-color="#00A0FF"/>
      <stop offset="1" stop-color="#00E3FF"/>
    </linearGradient>
    <linearGradient id="gp-green" x1="0" y1="0" x2="1" y2="1">
      <stop offset="0" stop-color="#00E886"/>
      <stop offset="1" stop-color="#00C344"/>
    </linearGradient>
    <linearGradient id="gp-red" x1="0" y1="1" x2="1" y2="0">
      <stop offset="0" stop-color="#FF3A44"/>
      <stop offset="1" stop-color="#C31162"/>
    </linearGradient>
    <linearGradient id="gp-yellow" x1="0" y1="1" x2="0" y2="0">
      <stop offset="0" stop-color="#FFD600"/>
      <stop offset="1" stop-color="#FFC800"/>
    </linearGradient>
  </defs>
  <!-- Google Play icon -->
  <g transform="translate(10,8)">
    <path d="M1.2.5C.9.8.7 1.3.7 2v20c0 .7.2 1.2.5 1.5l.1.1L12 13v-.2L1.3.6z" fill="url(#gp-blue)" transform="scale(0.9)"/>
    <path d="M15.6 16.6L12 13v-.2l3.6-3.6.1.1 4.3 2.4c1.2.7 1.2 1.8 0 2.5l-4.3 2.4z" fill="url(#gp-yellow)" transform="scale(0.9)"/>
    <path d="M15.7 16.5L12 12.8 1.2 23.5c.4.4 1.1.5 1.8.1l12.7-7.1" fill="url(#gp-red)" transform="scale(0.9)"/>
    <path d="M15.7 9.3L3 2.2C2.3 1.8 1.6 1.9 1.2 2.3L12 12.8l3.7-3.5z" fill="url(#gp-green)" transform="scale(0.9)"/>
  </g>
  <!-- Text -->
  <text x="35" y="14" font-family="-apple-system,system-ui,Helvetica,Arial,sans-serif" font-size="6.5" fill="#a6a6a6" letter-spacing=".05em">GET IT ON</text>
  <text x="35" y="29" font-family="-apple-system,system-ui,Helvetica,Arial,sans-serif" font-size="14" font-weight="500" fill="#fff">Google Play</text>
</svg>